# xmcd CD database file
#
# Track frame offsets:
#	187
#	12902
#	28059
#	50482
#	61442
#	79484
#	96564
#	116882
#	136612
#	152547
#
# Disc length: 2191 seconds
#
# Revision: 0
# Processed by: cddbd v1.4PL0 Copyright (c) Steve Scherf et al.
# Submitted via: CDex 1.50beta10
#
DISCID=84088d0a
DTITLE=Nat Adderley - You, baby
DYEAR=1968
DGENRE=Jazz
TTITLE0=You, baby
TTITLE1=By the time I get to Phoenix
TTITLE2=Electric eel
TTITLE3=Early chanson
TTITLE4=Denise
TTITLE5=Early minor
TTITLE6=My son
TTITLE7=New Orleans
TTITLE8=Hang on in
TTITLE9=Halftime
EXTD=YEAR: 1968
EXTT0=
EXTT1=
EXTT2=
EXTT3=
EXTT4=
EXTT5=
EXTT6=
EXTT7=
EXTT8=
EXTT9=
PLAYORDER=
